# xmcd
#
# Track frame offsets: 
#        150
#        24672
#        37587
#        52008
#        63769
#        78009
#        90770
#        109281
#        125170
#        144603
#        174695
#
# Disc length: 3314 seconds
#
# Revision: 0
# Processed by: cddbd v1.5.2PL0 Copyright (c) Steve Scherf et al.
# Submitted via: ExactAudioCopy v1.1
#
DISCID=870cf00b
DTITLE=Various Artist - Blues Guitar Legends
DYEAR=2005
DGENRE=Blues
TTITLE0=B.B. King - The Thrill Is Gone
TTITLE1=Muddy Waters - Hoochie Coochie Man
TTITLE2=Buddy Guy - Early In The Morning
TTITLE3=Freddie King - Hide Away
TTITLE4=John Lee Hooker - Boogie Chillen
TTITLE5=Howlin' Wolf - Back Door Man
TTITLE6=Robert Cray - Smoking Gun
TTITLE7=Jonny Lang - Cherry Red Wine
TTITLE8=The Allman Brothers Band - Statesboro Blues
TTITLE9=Stevie Ray Vaughan - Crossfire
TTITLE10=Data
EXTD=
EXTT0=
EXTT1=
EXTT2=
EXTT3=
EXTT4=
EXTT5=
EXTT6=
EXTT7=
EXTT8=
EXTT9=
EXTT10=
PLAYORDER=
